<?xml version="1.0" standalone="no"?><!DOCTYPE svg PUBLIC "-//W3C//DTD SVG 1.1//EN" "http://www.w3.org/Graphics/SVG/1.1/DTD/svg11.dtd"><svg t="1498044047906" class="icon" style="" viewBox="0 0 1024 1024" version="1.1" xmlns="http://www.w3.org/2000/svg" p-id="1073" xmlns:xlink="http://www.w3.org/1999/xlink" width="200" height="200"><defs><style type="text/css"></style></defs><path d="M932.501588 527.358803c14.539134-35.08303 64.716954-78.830393 25.204032-114.716718-36.296671-43.369763-110.696148 3.823072-100.4242 55.43045 25.828248-12.701277 51.426253-25.599028 77.221756-38.709627-14.111392 32.670074-31.046087 63.913659-42.729174 97.388051 12.30628 33.474392 30.848589 63.913659 46.37112 95.976912-29.240975-11.289114-58.449203-21.972431-87.723947-32.259728 10.108219 30.241768 28.847002 52.838416 56.088436 67.557652 36.066427 5.447059 54.641481-26.223245 74.594929-49.802266C964.957791 581.198012 948.843788 554.367947 932.501588 527.358803zM169.703565 373.506762c42.958394-48.587602 104.034425-76.023464 148.830677-122.790604-112.107287 2.822278-193.365986 99.194186-244.201791 189.739389C119.721197 442.064184 141.676232 401.1391 169.703565 373.506762zM804.476773 467.465714c11.683087 24.811082 33.277918 32.457226 59.663868 25.811876-90.51348-174.413332-284.10971-305.883619-486.139006-272.605701l-9.484002 24.580838c42.366923 18.164708 90.938152 6.875594 135.703705 15.555278C630.441041 277.742698 733.490022 366.253568 804.476773 467.465714zM632.475374 751.376902c-85.098143 52.822043-187.327456 49.803289-283.289018 50.41011 40.497343-179.861414 54.413284-373.030925 4.627391-552.071647-9.091052-7.876388-26.812669-23.399943-35.706223-31.06246 36.100196 185.703469 34.689057 376.246153 2.428306 562.572816-93.958952-26.418696-157.888983-102.229313-218.373543-173.412538 15.326057-32.473599 48.4075-64.930825 32.68747-103.853299-11.126408-38.512129-54.44603-56.251142-91.957365-49.801243 19.132756 20.363793 38.889729 40.546461 59.07342 60.287061-17.951861 40.121789-63.306838 84.901669-3.64297 115.931383 0 0 1.674129 5.644557 15.94925 41.97602 45.157479 75.990718 124.414591 118.145817 203.637933 149.798724 49.622164-3.01773 96.387257 19.757996 146.174174 16.540721 122.215506-3.839445 235.110739-69.574588 316.171939-158.282956 34.295084-38.709627 77.025281-82.473363 67.966974-138.936329C779.469216 614.672404 725.219661 705.004759 632.475374 751.376902zM209.840704 427.14745c-27.829835 26.616194 15.522532 72.988338 42.761919 44.355207C281.416879 445.280436 236.849848 395.888516 209.840704 427.14745zM507.042593 726.385718c-28.813233-12.519128-57.037041-25.417903-85.491093-38.527478-3.807722 8.66331-11.683087 26.00835-15.522532 34.491559 38.101783 20.757766 95.599312 66.523089 130.058125 15.523555 31.637558-32.867572 6.03853-77.238129-25.006534-98.816586C510.096139 660.848073 508.060783 704.594413 507.042593 726.385718z" p-id="1074" fill="#d81e06"></path></svg>